<svg width="145" viewBox="0 0 131 25" fill="none" xmlns="http://www.w3.org/2000/svg">
<path d="M33.7216 18.5152V0.863477H45.0298V3.544H36.9193V8.33618H44.2541V11.0167H36.9193V18.5152H33.7216Z" fill="#0c0c0c"/>
<path d="M50.9252 0.863477V18.5152H47.8051V0.863477H50.9252Z" fill="#0c0c0c"/>
<path d="M57.9432 18.7824C57.1043 18.7824 56.3487 18.633 55.6764 18.3342C55.0099 18.0297 54.4813 17.5815 54.0905 16.9897C53.7056 16.3978 53.5131 15.6681 53.5131 14.8004C53.5131 14.0535 53.651 13.4358 53.9268 12.9474C54.2026 12.4589 54.5789 12.0682 55.0559 11.7752C55.5328 11.4821 56.07 11.2609 56.6676 11.1115C57.271 10.9564 57.8944 10.8443 58.538 10.7754C59.3137 10.6949 59.9429 10.6231 60.4255 10.5599C60.9082 10.4909 61.2587 10.3875 61.477 10.2496C61.7011 10.1059 61.8132 9.88473 61.8132 9.58593V9.53422C61.8132 8.88492 61.6207 8.38214 61.2357 8.02589C60.8507 7.66964 60.2962 7.49151 59.5722 7.49151C58.808 7.49151 58.2018 7.65814 57.7536 7.99141C57.3112 8.32468 57.0124 8.71829 56.8572 9.17222L53.944 8.75851C54.1739 7.95406 54.5531 7.28178 55.0817 6.74165C55.6104 6.19578 56.2568 5.78781 57.021 5.51775C57.7852 5.24194 58.6299 5.10404 59.555 5.10404C60.1928 5.10404 60.8277 5.17874 61.4598 5.32813C62.0919 5.47753 62.6693 5.72461 63.1922 6.06937C63.7151 6.40839 64.1346 6.87094 64.4506 7.45703C64.7724 8.04313 64.9333 8.77575 64.9333 9.65489V18.5152H61.9339V16.6966H61.8304C61.6408 17.0644 61.3736 17.4091 61.0289 17.7309C60.6898 18.0469 60.2618 18.3026 59.7446 18.498C59.2332 18.6876 58.6328 18.7824 57.9432 18.7824ZM58.7534 16.4898C59.3797 16.4898 59.9227 16.3662 60.3824 16.1192C60.8421 15.8663 61.1955 15.5331 61.4426 15.1194C61.6954 14.7056 61.8218 14.2546 61.8218 13.7662V12.2061C61.7241 12.2866 61.5575 12.3613 61.3219 12.4302C61.0921 12.4992 60.8335 12.5595 60.5462 12.6112C60.2589 12.6629 59.9745 12.7089 59.6929 12.7491C59.4114 12.7893 59.1671 12.8238 58.9603 12.8525C58.4949 12.9158 58.0783 13.0192 57.7105 13.1628C57.3428 13.3065 57.0526 13.5076 56.84 13.7662C56.6274 14.019 56.5211 14.3465 56.5211 14.7487C56.5211 15.3233 56.7308 15.7572 57.1503 16.0502C57.5698 16.3433 58.1041 16.4898 58.7534 16.4898Z" fill="#0c0c0c"/>
<path d="M73.8281 23.7556C72.7076 23.7556 71.7452 23.6033 70.9407 23.2988C70.1363 23 69.4899 22.5978 69.0015 22.0921C68.513 21.5865 68.174 21.0263 67.9844 20.4114L70.7942 19.7305C70.9206 19.9891 71.1045 20.2448 71.3458 20.4976C71.5872 20.7562 71.9118 20.9688 72.3198 21.1354C72.7335 21.3078 73.2535 21.394 73.8798 21.394C74.7647 21.394 75.4973 21.1785 76.0777 20.7476C76.658 20.3224 76.9482 19.6214 76.9482 18.6445V16.1364H76.7931C76.6322 16.4582 76.3966 16.7886 76.0863 17.1276C75.7818 17.4666 75.3767 17.751 74.871 17.9809C74.3711 18.2107 73.7419 18.3256 72.9835 18.3256C71.9664 18.3256 71.0442 18.0872 70.2167 17.6103C69.3951 17.1276 68.74 16.4093 68.2516 15.4555C67.7689 14.4959 67.5276 13.295 67.5276 11.8527C67.5276 10.399 67.7689 9.17222 68.2516 8.17241C68.74 7.16686 69.3979 6.40551 70.2254 5.88837C71.0528 5.36548 71.975 5.10404 72.9921 5.10404C73.7678 5.10404 74.4056 5.2362 74.9055 5.50051C75.4111 5.75908 75.8134 6.07224 76.1122 6.43999C76.411 6.80199 76.6379 7.14388 76.7931 7.46565H76.9654V5.27642H80.0424V18.7307C80.0424 19.8627 79.7724 20.7993 79.2322 21.5405C78.6921 22.2818 77.9538 22.8363 77.0172 23.204C76.0806 23.5717 75.0175 23.7556 73.8281 23.7556ZM73.854 15.8778C74.5148 15.8778 75.0779 15.7169 75.5433 15.3952C76.0087 15.0734 76.3621 14.6108 76.6034 14.0075C76.8448 13.4042 76.9654 12.6802 76.9654 11.8355C76.9654 11.0023 76.8448 10.2726 76.6034 9.64627C76.3679 9.01995 76.0173 8.53441 75.5519 8.18965C75.0922 7.83914 74.5263 7.66389 73.854 7.66389C73.1587 7.66389 72.5784 7.84489 72.1129 8.20689C71.6475 8.56889 71.297 9.06592 71.0614 9.69798C70.8258 10.3243 70.708 11.0368 70.708 11.8355C70.708 12.6457 70.8258 13.3553 71.0614 13.9644C71.3027 14.5677 71.6561 15.0389 72.1215 15.3779C72.5927 15.7112 73.1702 15.8778 73.854 15.8778Z" fill="#0c0c0c"/>
<path d="M93.7036 8.77575L90.8593 9.08603C90.7789 8.79873 90.6381 8.52867 90.437 8.27584C90.2416 8.02302 89.9773 7.81903 89.644 7.66389C89.3108 7.50875 88.9028 7.43118 88.4201 7.43118C87.7708 7.43118 87.225 7.57195 86.7825 7.85351C86.3458 8.13506 86.1303 8.49994 86.1361 8.94813C86.1303 9.33311 86.2711 9.64627 86.5584 9.8876C86.8515 10.1289 87.3341 10.3272 88.0064 10.4823L90.2646 10.965C91.5172 11.235 92.4481 11.6631 93.0572 12.2492C93.672 12.8353 93.9823 13.6024 93.988 14.5505C93.9823 15.3837 93.7381 16.1192 93.2554 16.757C92.7785 17.389 92.1148 17.8832 91.2644 18.2394C90.414 18.5957 89.4372 18.7738 88.3339 18.7738C86.7136 18.7738 85.4092 18.4348 84.4209 17.7568C83.4326 17.073 82.8436 16.122 82.654 14.9039L85.6965 14.6108C85.8344 15.2084 86.1275 15.6595 86.5757 15.964C87.0238 16.2686 87.6071 16.4208 88.3253 16.4208C89.0666 16.4208 89.6613 16.2686 90.1095 15.964C90.5634 15.6595 90.7904 15.2831 90.7904 14.8349C90.7904 14.4557 90.6438 14.1425 90.3508 13.8954C90.0635 13.6484 89.6153 13.4588 89.0062 13.3266L86.748 12.8525C85.4782 12.5882 84.5387 12.1429 83.9296 11.5166C83.3205 10.8845 83.0189 10.0858 83.0246 9.12051C83.0189 8.30457 83.2401 7.59781 83.6883 7.00023C84.1422 6.39689 84.7714 5.93147 85.5758 5.60394C86.386 5.27067 87.3198 5.10404 88.377 5.10404C89.9285 5.10404 91.1495 5.43444 92.0401 6.09523C92.9365 6.75602 93.491 7.64953 93.7036 8.77575Z" fill="#0c0c0c"/>
<path d="M99.6809 10.7581V18.5152H96.5608V0.863477H99.6119V7.52599H99.7671C100.077 6.779 100.557 6.19004 101.206 5.75909C101.862 5.32239 102.695 5.10404 103.706 5.10404C104.625 5.10404 105.427 5.29653 106.111 5.68151C106.794 6.0665 107.323 6.62961 107.697 7.37084C108.076 8.11208 108.265 9.01708 108.265 10.0858V18.5152H105.145V10.5685C105.145 9.67787 104.916 8.98548 104.456 8.49132C104.002 7.99141 103.364 7.74146 102.542 7.74146C101.991 7.74146 101.497 7.86213 101.06 8.10346C100.629 8.33905 100.29 8.68094 100.043 9.12913C99.8016 9.57731 99.6809 10.1203 99.6809 10.7581Z" fill="#0c0c0c"/>
<path d="M111.446 18.5152V5.27642H114.566V18.5152H111.446ZM113.015 3.39747C112.52 3.39747 112.095 3.23371 111.739 2.90619C111.383 2.57292 111.205 2.17357 111.205 1.70814C111.205 1.23697 111.383 0.837619 111.739 0.510096C112.095 0.176827 112.52 0.0101929 113.015 0.0101929C113.514 0.0101929 113.94 0.176827 114.29 0.510096C114.646 0.837619 114.825 1.23697 114.825 1.70814C114.825 2.17357 114.646 2.57292 114.29 2.90619C113.94 3.23371 113.514 3.39747 113.015 3.39747Z" fill="#0c0c0c"/>
<path d="M117.774 23.4798V5.27642H120.843V7.46565H121.024C121.185 7.14388 121.412 6.80199 121.705 6.43999C121.998 6.07224 122.394 5.75908 122.894 5.50051C123.394 5.2362 124.032 5.10404 124.808 5.10404C125.83 5.10404 126.753 5.36548 127.574 5.88837C128.402 6.40551 129.057 7.17261 129.539 8.18965C130.028 9.20095 130.272 10.4421 130.272 11.9131C130.272 13.3668 130.034 14.6022 129.557 15.6193C129.08 16.6363 128.43 17.412 127.609 17.9464C126.787 18.4808 125.856 18.748 124.816 18.748C124.058 18.748 123.428 18.6215 122.929 18.3687C122.429 18.1159 122.026 17.8114 121.722 17.4551C121.423 17.0931 121.19 16.7512 121.024 16.4294H120.894V23.4798H117.774ZM120.834 11.8958C120.834 12.752 120.955 13.5018 121.196 14.1454C121.443 14.789 121.797 15.2917 122.256 15.6537C122.722 16.01 123.285 16.1881 123.946 16.1881C124.635 16.1881 125.213 16.0042 125.678 15.6365C126.143 15.263 126.494 14.7545 126.73 14.1109C126.971 13.4616 127.092 12.7233 127.092 11.8958C127.092 11.0742 126.974 10.3444 126.738 9.7066C126.503 9.06879 126.152 8.56889 125.687 8.20689C125.221 7.84489 124.641 7.66389 123.946 7.66389C123.279 7.66389 122.713 7.83914 122.248 8.18965C121.782 8.54016 121.429 9.03144 121.188 9.66351C120.952 10.2956 120.834 11.0397 120.834 11.8958Z" fill="#0c0c0c"/>
<path d="M14.3996 3.99047L8.94586 15.9905C8.90624 16.078 8.84226 16.1522 8.76157 16.2043C8.68089 16.2564 8.5869 16.2841 8.49086 16.2842H1.45461C1.29663 16.2868 1.14019 16.2528 0.997513 16.185C0.854834 16.1171 0.729776 16.0172 0.632108 15.893C0.489493 15.707 0.416747 15.4768 0.426571 15.2426C0.436395 15.0084 0.528165 14.7851 0.685858 14.6117L5.07461 9.78422L0.685858 4.95672C0.527843 4.78323 0.435875 4.5597 0.426049 4.32524C0.416222 4.09078 0.489164 3.86033 0.632108 3.67422C0.730032 3.5504 0.855172 3.45081 0.997813 3.38317C1.14046 3.31554 1.29676 3.28168 1.45461 3.28422H13.9446C14.0282 3.2843 14.1104 3.30532 14.1837 3.34536C14.2571 3.3854 14.3192 3.44319 14.3645 3.51343C14.4097 3.58367 14.4366 3.66414 14.4428 3.74747C14.4489 3.83081 14.4341 3.91435 14.3996 3.99047ZM27.6209 0.564223C27.4249 0.380782 27.1655 0.280421 26.8971 0.284223H18.9259C18.7339 0.284298 18.546 0.339615 18.3847 0.44357C18.2233 0.547525 18.0953 0.695724 18.0159 0.870473L12.6946 12.5767C12.6599 12.6529 12.6448 12.7366 12.6508 12.8201C12.6568 12.9036 12.6837 12.9843 12.729 13.0547C12.7743 13.1251 12.8365 13.183 12.91 13.2231C12.9835 13.2632 13.0659 13.2842 13.1496 13.2842H20.3734L16.0159 22.8705C15.9574 22.9905 15.9235 23.1211 15.9163 23.2545C15.9091 23.3879 15.9286 23.5213 15.9739 23.647C16.0191 23.7727 16.089 23.888 16.1795 23.9862C16.2701 24.0845 16.3793 24.1635 16.5009 24.2188C16.6225 24.2741 16.7539 24.3045 16.8875 24.3081C17.021 24.3118 17.1539 24.2886 17.2783 24.2401C17.4027 24.1915 17.5162 24.1186 17.6119 24.0255C17.7077 23.9323 17.7838 23.821 17.8359 23.698L27.8359 1.69797C27.9216 1.50994 27.9469 1.29998 27.9084 1.09696C27.8699 0.893937 27.7694 0.707828 27.6209 0.564223Z" fill="#0c0c0c"/>
</svg>
